# xmcd
#
# Track frame offsets:
#	150
#	18104
#	37460
#	56616
#	80464
#	106906
#	143211
#	168410
#	189195
#	206712
#	225262
#
# Disc length: 3308 seconds
# Revision: 0
# Processed by: cddbd v1.5.2PL0 Copyright (c) Steve Scherf et al.
# Submitted via: dBpowerAMP V12.0
#
DISCID=8a0cea0b
DTITLE=Ronnie Baker Brooks - Times Have Changed
DYEAR=2017
DGENRE=Blues
TTITLE0=Show Me (feat. Steve Cropper)
TTITLE1=Doing Too Much  (feat. "Big Head" Todd Mohr)
TTITLE2=Twine Time  (feat. Lonnie Brooks)
TTITLE3=Times Have Changed  (feat. Al Kapone)
TTITLE4=Long Story Short
TTITLE5=Give Me Your Love (Love Song) (feat. Angie Stone)
TTITLE6=Give The Baby Anything The Baby Wants (feat. "Big Head" Todd Mohr and Eddie Willis)
TTITLE7=Old Love  (feat. Bobby 'Blue' Bland)
TTITLE8=Come On Up  (feat. Felix Cavaliere and Lee Roy Parnell)
TTITLE9=Wham Bam Thank You Sam
TTITLE10=When I Was We
EXTD=
EXTT0=
EXTT1=
EXTT2=
EXTT3=
EXTT4=
EXTT5=
EXTT6=
EXTT7=
EXTT8=
EXTT9=
EXTT10=
PLAYORDER=
